<?xml version="1.0" encoding="utf-8"?>
<!-- Svg Vector Icons : http://www.onlinewebfonts.com/icon -->
<!DOCTYPE svg PUBLIC "-//W3C//DTD SVG 1.1//EN" "http://www.w3.org/Graphics/SVG/1.1/DTD/svg11.dtd">
<svg version="1.1" xmlns="http://www.w3.org/2000/svg" xmlns:xlink="http://www.w3.org/1999/xlink" x="0px" y="0px" viewBox="0 0 1000 1000" enable-background="new 0 0 1000 1000" xml:space="preserve">
<metadata> Svg Vector Icons : http://www.onlinewebfonts.com/icon </metadata>
<g><g transform="translate(0.000000,511.000000) scale(0.100000,-0.100000)"><path d="M4401.9,4533.3c-38.3-4.8-189-21.5-335-35.9c-2150.9-215.3-3821-1292-3950.2-2545.7L100,1796.2h4900h4900l-14.3,177c-59.8,705.8-698.6,1428.4-1679.6,1904.5c-928.3,449.8-2031.3,674.7-3251.5,667.5C4689,4542.9,4442.5,4535.7,4401.9,4533.3z M3715.2,3798.8c162.7-162.7-19.1-387.6-272.8-339.7c-208.1,38.3-270.4,253.6-105.3,366.1C3449.6,3901.7,3624.3,3889.7,3715.2,3798.8z M6729.8,3829.9c215.3-131.6,83.8-402-184.2-375.6c-157.9,16.8-229.7,81.4-229.7,210.6c0,90.9,9.6,110.1,81.4,157.9C6497.7,3889.7,6624.6,3894.5,6729.8,3829.9z M2100.2,2985.3c157.9-67,193.8-210.6,79-323c-55-55-83.7-64.6-203.4-64.6c-117.2,0-153.1,9.6-203.4,57.4c-107.7,100.5-74.2,265.6,64.6,325.4C1935.1,3023.6,2004.5,3023.6,2100.2,2985.3z M5114.8,2994.9c191.4-74.2,212.9-284.7,40.7-373.2c-153.1-79-351.7-23.9-406.7,110.1c-40.7,98.1,0,181.8,119.6,241.6C4961.7,3021.2,5028.7,3026,5114.8,2994.9z M8232.4,2980.6c52.6-21.5,93.3-62.2,114.9-110.1c38.3-93.3,28.7-143.6-50.3-217.7c-86.1-81.3-311-78.9-399.6,2.4c-107.7,100.5-74.2,265.6,64.6,325.4C8062.5,3023.6,8129.5,3023.6,8232.4,2980.6z"/><path d="M1470.9,1442.1c-71.8-23.9-232.1-86.1-354.1-134c-136.4-55-311-102.9-442.6-122c-268-40.7-380.4-110.1-483.3-299.1c-64.6-119.6-71.8-155.5-79-401.9C97.6,78.3,167-117.9,375.1-254.2c90.9-59.8,119.6-67,303.9-64.6c193.8,0,224.9,7.2,516.8,129.2C1497.3-62.8,1514-60.4,1734.1-60.4s236.9-2.4,550.3-129.2c313.4-129.2,330.2-131.6,550.3-131.6C3054.8-318.8,3074-314,3373-192c265.6,110,339.8,131.6,502.4,138.8c172.3,9.6,212.9,4.8,394.8-64.6C4863.6-342.7,4842.1-338,5047.9-326c162.7,7.2,236.9,28.7,502.4,138.8c299.1,122,318.2,126.8,538.3,129.2c222.5,0,236.9-2.4,550.3-131.6c313.4-129.2,327.8-131.6,550.3-131.6c220.1,2.4,236.9,7.2,538.3,131.6C8029-65.2,8045.8-60.4,8265.9-58c220.1,0,236.9-4.8,550.3-129.2c490.5-198.6,715.4-193.8,914,14.3c129.2,136.4,162.7,251.2,162.7,593.4c0,260.8-9.6,327.8-50.2,418.7c-100.5,222.5-222.5,303.9-526.4,349.3c-136.4,21.5-308.7,71.8-514.4,155.5c-473.8,189-586.2,186.6-1103-16.8c-473.7-186.6-571.8-184.2-1083.8,19.2c-464.2,186.6-579,184.2-1095.8-19.2c-459.4-181.8-581.4-179.4-1076.7,16.8c-469,189-581.4,186.6-1100.6-16.8c-464.2-184.2-576.6-181.8-1081.5,19.2C1904,1492.4,1695.8,1516.3,1470.9,1442.1z"/><path d="M621.6-665.7C406.2-701.6,188.5-893,131.1-1094c-35.9-136.4-31.1-552.7,12-677.1c52.6-150.7,157.9-270.4,303.9-342.1l124.4-62.2h4411.9c3395.1,0,4435.9,7.2,4512.4,28.7c131.6,38.3,330.2,236.9,368.4,368.5c40.7,138.8,38.3,636.4-4.8,736.9c-47.9,117.2-203.4,277.5-313.4,327.8c-52.6,23.9-141.2,45.4-198.6,45.4c-98.1,0-136.4-23.9-722.6-478.5c-339.7-263.2-624.5-478.5-634-478.5s-296.7,217.7-638.8,480.9L6727.4-661h-217.7h-220.1l-591-457c-325.4-253.6-610.1-471.3-634-485.7c-38.3-23.9-124.4,33.5-658,447.4c-339.8,260.8-643.6,483.3-679.5,492.9c-33.5,9.6-143.6,9.6-244,0l-181.8-19.1l-595.8-461.8c-327.8-253.6-607.7-466.6-624.5-471.3c-14.4-7.2-311,210.5-660.4,478.5C1073.8-866.7,772.3-646.6,753.2-649C734-649,674.2-656.2,621.6-665.7z"/><path d="M107.2-2864.5c0-567,76.6-799.1,361.3-1086.2c186.6-189,416.3-311,662.7-354.1c114.9-16.7,1251.3-23.9,3964.5-19.1l3804.2,7.2l155.5,52.6c287.1,98.1,555.1,323,689.1,576.6c126.8,239.3,148.3,356.5,148.3,799.1v402H5000H107.2V-2864.5z"/></g></g>
</svg>